<?xml version="1.0" encoding="iso-8859-1"?>
<!-- Uploaded to: SVG Repo, www.svgrepo.com, Generator: SVG Repo Mixer Tools -->
<svg height="800px" width="800px" version="1.1" id="Layer_1" xmlns="http://www.w3.org/2000/svg" xmlns:xlink="http://www.w3.org/1999/xlink" 
	 viewBox="0 0 232.661 232.661" xml:space="preserve">
<g>
	<path style="fill:#FFE49C;" d="M116.33,7.501c-49.257,0-89.851,37.094-95.37,84.872c-0.685,5.933,3.97,11.138,9.943,11.138h170.856
		c5.973,0,10.628-5.205,9.943-11.138C206.181,44.595,165.588,7.501,116.33,7.501z"/>
	<path style="fill:#CBE5C0;" d="M194.319,139.664H38.341c-9.953,0-18.021-8.068-18.021-18.021v-0.113
		c0-9.952,8.068-18.021,18.021-18.021h155.978c9.952,0,18.021,8.068,18.021,18.021v0.113
		C212.34,131.596,204.272,139.664,194.319,139.664z"/>
	<path style="fill:#FF7876;" d="M194.319,175.818H38.341c-9.953,0-18.021-8.068-18.021-18.02v-0.113
		c0-9.952,8.068-18.02,18.021-18.02h155.978c9.952,0,18.021,8.068,18.021,18.02v0.113
		C212.34,167.75,204.272,175.818,194.319,175.818z"/>
	<path style="fill:#FFE49C;" d="M191.34,225.16H41.321c-11.598,0-21-9.402-21-21v-18.342c0-5.523,4.477-10,10-10H202.34
		c5.523,0,10,4.477,10,10v18.342C212.34,215.758,202.938,225.16,191.34,225.16z"/>
	<polygon style="fill:#F59D00;" points="154.101,165.818 124.556,139.664 183.645,139.664 	"/>
	<g>
		<path style="fill:#414042;" d="M219.84,121.53c0-5.985-2.076-11.49-5.538-15.847c3.852-3.964,5.427-9.181,4.849-14.172
			C213.124,39.342,168.921,0,116.33,0S19.536,39.342,13.509,91.512c-0.576,4.995,1.001,10.212,4.85,14.172
			c-3.462,4.357-5.538,9.862-5.538,15.847v0.113c0,7.028,2.856,13.401,7.467,18.02c-4.612,4.62-7.467,10.993-7.467,18.021v0.112
			c0,5.834,1.972,11.214,5.28,15.518c-3.252,3.179-5.28,7.606-5.28,12.503v18.343c0,15.715,12.785,28.5,28.5,28.5h150.02
			c15.715,0,28.5-12.785,28.5-28.5v-18.343c0-4.896-2.027-9.324-5.279-12.503c3.307-4.303,5.279-9.683,5.279-15.518v-0.112
			c0-7.028-2.856-13.401-7.467-18.021c4.612-4.62,7.467-10.993,7.467-18.02v-0.114H219.84z M204.84,121.644
			c0,5.801-4.72,10.52-10.521,10.52c-10.292,0-59.259,0-69.763,0H38.341c-5.801,0-10.521-4.72-10.521-10.52v-0.113
			c0-5.801,4.72-10.52,10.521-10.52h155.978c5.801,0,10.521,4.72,10.521,10.52V121.644z M204.84,157.685v0.112
			c0,5.801-4.72,10.52-10.521,10.52h-31.727l23.896-21.153h7.831C200.12,147.164,204.84,151.884,204.84,157.685z M27.82,157.797
			v-0.112c0-5.801,4.72-10.521,10.521-10.521h83.372l23.896,21.153H38.341C32.54,168.317,27.82,163.598,27.82,157.797z
			 M144.344,147.164h19.514l-9.757,8.637L144.344,147.164z M116.33,15c44.97,0,82.768,33.633,87.92,78.232
			c0.17,1.474-0.996,2.777-2.493,2.777c-6.111,0-164.873,0-170.855,0c-1.487,0-2.663-1.294-2.493-2.777
			C33.563,48.633,71.36,15,116.33,15z M204.84,204.16c0,7.444-6.056,13.5-13.5,13.5H41.32c-7.444,0-13.5-6.056-13.5-13.5v-18.343
			c0-1.379,1.122-2.5,2.5-2.5c11.006,0,166.415,0,172.02,0c1.378,0,2.5,1.121,2.5,2.5V204.16z"/>
		<circle style="fill:#414042;" cx="103.974" cy="41.215" r="5"/>
		<circle style="fill:#414042;" cx="81.02" cy="55.28" r="5"/>
		<circle style="fill:#414042;" cx="128.687" cy="41.215" r="5"/>
		<circle style="fill:#414042;" cx="151.64" cy="55.28" r="5"/>
	</g>
</g>
</svg>